<svg version="1.1" id="Layer_1" xmlns="http://www.w3.org/2000/svg" xmlns:xlink="http://www.w3.org/1999/xlink" x="0px" y="0px"
	 viewBox="0 0 109.73 83.08" style="enable-background:new 0 0 109.73 83.08;" xml:space="preserve">
<g>
	<path d="M56.46,70.01h-6.67v-27H19.57v27H12.9V12.64h6.67v24.41h30.22V12.64h6.67V70.01z"/>
</g>
<g>
	<path d="M97.7,26.34c0,3.65-1.02,6.63-3.07,8.95c-2.04,2.32-4.94,3.87-8.69,4.65v0.31c4.58,0.57,7.98,2.03,10.2,4.38
		c2.21,2.34,3.32,5.42,3.32,9.22c0,5.44-1.89,9.63-5.66,12.56c-3.78,2.93-9.14,4.39-16.09,4.39c-3.02,0-5.79-0.23-8.3-0.68
		c-2.51-0.46-4.96-1.26-7.32-2.4v-6.17c2.47,1.22,5.11,2.16,7.91,2.79c2.8,0.64,5.45,0.96,7.95,0.96c9.87,0,14.8-3.87,14.8-11.6
		c0-6.93-5.44-10.39-16.33-10.39h-5.63v-5.59h5.7c4.45,0,7.98-0.98,10.59-2.95c2.6-1.97,3.91-4.69,3.91-8.18
		c0-2.79-0.96-4.97-2.87-6.56c-1.91-1.59-4.51-2.38-7.79-2.38c-2.5,0-4.86,0.34-7.07,1.02c-2.21,0.68-4.74,1.93-7.58,3.75
		l-3.28-4.38c2.34-1.85,5.04-3.3,8.11-4.36c3.06-1.05,6.28-1.58,9.67-1.58c5.55,0,9.86,1.27,12.93,3.81
		C96.17,18.43,97.7,21.91,97.7,26.34z"/>
</g>
</svg>
