<?xml version="1.0" encoding="utf-8"?>
<!-- Generator: Adobe Illustrator 24.3.0, SVG Export Plug-In . SVG Version: 6.00 Build 0)  -->
<svg version="1.1" id="Layer_1" xmlns="http://www.w3.org/2000/svg" xmlns:xlink="http://www.w3.org/1999/xlink" x="0px" y="0px"
	 viewBox="0 0 112.45 83.08" style="enable-background:new 0 0 112.45 83.08;" xml:space="preserve">
<g>
	<path d="M56.46,70.01h-6.67v-27H19.57v27H12.9V12.64h6.67v24.41h30.22V12.64h6.67V70.01z"/>
</g>
<g>
	<path d="M100.85,70.01H63.31v-5.59l15.04-15.12c4.58-4.63,7.6-7.94,9.06-9.92c1.46-1.98,2.55-3.91,3.28-5.78
		c0.73-1.88,1.09-3.89,1.09-6.05c0-3.05-0.92-5.46-2.77-7.25c-1.85-1.78-4.41-2.68-7.7-2.68c-2.37,0-4.62,0.39-6.74,1.17
		c-2.12,0.78-4.49,2.2-7.09,4.26l-3.44-4.41c5.26-4.38,10.99-6.56,17.19-6.56c5.36,0,9.57,1.37,12.62,4.12
		c3.05,2.75,4.57,6.44,4.57,11.07c0,3.62-1.02,7.2-3.05,10.74c-2.03,3.54-5.83,8.02-11.41,13.44l-12.5,12.23V64h29.38V70.01z"/>
	<path d="M75.66,166.01L59.41,123.2h6.95l9.22,25.39c2.08,5.94,3.31,9.79,3.67,11.56h0.31c0.29-1.38,1.19-4.24,2.71-8.57
		s4.94-13.79,10.25-28.38h6.95l-16.25,42.81H75.66z"/>
</g>
</svg>
